<svg xmlns="http://www.w3.org/2000/svg" width="827.998" height="127" viewBox="0 0 827.998 127">
  <g id="Group_25" data-name="Group 25" transform="translate(17477.998 6081)">
    <text id="Local_Library" data-name="Local Library" transform="translate(-17262 -5981)" fill="#00a6ed" font-size="100" font-family="Circular-Bold, Circular" font-weight="700"><tspan x="0" y="0">Local Library</tspan></text>
    <g id="Group_23" data-name="Group 23" transform="translate(70 34.762)">
      <g id="Guides" transform="translate(-17547.998 -6108)">
        <g id="Group_22" data-name="Group 22" transform="translate(0 0)">
          <g id="Group_21" data-name="Group 21">
            <path id="Path_4" data-name="Path 4" d="M635.98,624.75c.2.432.412.861.638,1.279Z" transform="translate(-500.158 -526.226)" fill="#00a6ed"/>
            <g id="Group_19" data-name="Group 19" transform="translate(100.325)">
              <g id="Group_18" data-name="Group 18" transform="translate(0)">
                <path id="Path_5" data-name="Path 5" d="M608.771,418h0l0,0a22.378,22.378,0,0,0-1.128-2.26l-32.913-65.913-.017.007a22.277,22.277,0,1,0-39.849,19.928l-.017.007,33.136,66.256c-.069-.151-.13-.305-.2-.456.257.59.532,1.173.837,1.736h0c.305.563.641,1.1.995,1.636.093.141.189.278.285.415q.478.694,1.008,1.348c.052.065.1.13.151.2.4.484.83.947,1.269,1.4.113.117.23.226.346.34.377.367.768.724,1.17,1.063.1.079.185.165.281.244.487.4.991.772,1.509,1.128.123.082.247.161.374.244q.653.427,1.334.813c.13.072.261.151.391.22.559.3,1.128.576,1.715.827.113.048.233.093.35.137.5.2,1,.388,1.516.556.158.051.312.1.473.151.621.185,1.249.353,1.887.484.082.017.168.027.25.045.569.113,1.149.2,1.736.264.175.021.353.038.528.055.669.062,1.345.1,2.031.1a22.294,22.294,0,0,0,22.294-22.294A22.027,22.027,0,0,0,608.771,418Zm-41.8,15.4c.192.607.412,1.2.652,1.784C567.383,434.6,567.163,434.008,566.971,433.4Zm-1.036-6.723c0,.689.041,1.365.1,2.037C565.976,428.043,565.935,427.367,565.935,426.678Zm.144,2.466c.072.652.168,1.293.295,1.928C566.247,430.437,566.151,429.8,566.079,429.144Zm.363,2.247q.185.864.439,1.7C566.714,432.536,566.57,431.967,566.443,431.39Z" transform="translate(-532.49 -337.5)" fill="#00a6ed"/>
              </g>
            </g>
            <g id="Group_20" data-name="Group 20">
              <path id="Path_6" data-name="Path 6" d="M315.667,349.824l-.017.007a22.26,22.26,0,0,0-39.842-.007h-.024S242.116,417.149,241.8,417.88l-.038.079h0a22.3,22.3,0,1,0,28.664-12.029,5.689,5.689,0,0,1-3.046-7.837l8.842-17.705a2.726,2.726,0,0,1,4.877,0s28.238,56.494,28.465,56.913v0a22.292,22.292,0,1,0,39.015-21.574Z" transform="translate(-239.989 -337.5)" fill="#00a6ed"/>
            </g>
          </g>
        </g>
      </g>
    </g>
  </g>
</svg>
